<?xml version="1.0" standalone="no"?>
<!DOCTYPE svg PUBLIC "-//W3C//DTD SVG 20010904//EN"
 "http://www.w3.org/TR/2001/REC-SVG-20010904/DTD/svg10.dtd">
<svg version="1.0" xmlns="http://www.w3.org/2000/svg"
 width="500.000000pt" height="500.000000pt" viewBox="0 0 500.000000 500.000000"
 preserveAspectRatio="xMidYMid meet">
<metadata>
Created by potrace 1.14, written by Peter Selinger 2001-2017
</metadata>
<g transform="translate(0.000000,500.000000) scale(0.100000,-0.100000)"
fill="#fff" stroke="none">
<path d="M2780 3290 c-2 -14 -4 -37 -5 -51 -3 -46 -14 -52 -46 -25 -16 14 -46
28 -67 31 -20 4 -50 11 -65 17 -22 9 -31 8 -37 -2 -6 -10 -24 -10 -86 -2 l-79
11 78 -6 c55 -3 77 -1 77 7 0 16 -134 7 -230 -15 -87 -20 -126 -41 -110 -60 7
-9 6 -16 -4 -24 -9 -7 -17 -8 -20 -2 -3 5 0 12 6 14 10 4 10 8 -1 15 -12 9
-12 13 -2 25 10 13 9 15 -8 10 -10 -3 -24 -17 -29 -31 -27 -73 -25 -69 -29
-49 -4 14 -8 15 -18 7 -9 -8 -14 -6 -19 6 -3 9 -4 20 0 25 10 16 -12 9 -34
-11 -12 -11 -19 -27 -16 -35 7 -18 -22 -21 -29 -2 -4 9 -8 8 -16 -3 -7 -10 -6
-17 2 -22 8 -5 9 -8 1 -8 -12 0 -28 -37 -32 -77 -1 -9 -9 -6 -22 7 -19 19 -22
19 -57 5 -20 -8 -38 -13 -41 -10 -3 3 -16 -2 -30 -11 -13 -8 -30 -13 -38 -10
-21 8 -31 -44 -10 -56 20 -11 21 -28 2 -28 -26 0 -30 -23 -7 -41 12 -10 17
-20 11 -24 -5 -3 -10 -3 -10 0 0 4 -7 -1 -16 -10 -15 -15 -18 -15 -35 1 -13
11 -19 13 -19 5 0 -7 18 -20 40 -29 26 -11 40 -23 40 -36 0 -13 -5 -17 -20
-13 -11 3 -20 1 -20 -3 0 -5 8 -11 18 -13 9 -3 -7 -5 -35 -6 -36 -1 -53 3 -54
12 0 6 -5 1 -10 -12 -5 -14 -7 -31 -5 -38 3 -7 1 -13 -4 -13 -6 0 -10 5 -10
10 0 18 -36 10 -57 -12 -12 -13 -24 -40 -28 -60 -4 -21 -11 -38 -16 -38 -5 0
-9 -5 -9 -11 0 -5 5 -7 10 -4 6 3 10 -3 10 -14 0 -10 3 -27 7 -37 4 -11 3 -15
-5 -10 -23 14 -24 -17 -1 -35 13 -10 20 -21 16 -26 -5 -4 -12 -1 -17 7 -8 12
-10 10 -10 -8 0 -31 35 -78 43 -58 3 8 3 17 -1 19 -4 2 -2 2 5 1 6 -2 14 2 16
9 3 7 3 -4 0 -24 -3 -24 -1 -39 8 -44 9 -6 11 -3 6 9 -4 11 -3 15 4 10 6 -4
15 0 20 7 6 9 9 10 9 2 0 -6 -4 -15 -10 -18 -5 -3 -10 -15 -10 -25 0 -13 -9
-22 -25 -26 -14 -3 -25 -10 -25 -14 0 -19 13 -39 21 -34 5 3 6 10 3 16 -4 7
-2 8 4 4 7 -4 29 5 49 19 l38 25 6 -27 c7 -28 7 -28 8 -3 2 23 3 24 15 8 17
-23 28 -23 49 3 13 15 25 19 43 15 14 -4 24 -2 24 4 0 5 -5 10 -12 10 -6 0 -8
3 -5 6 4 4 12 2 19 -3 9 -8 31 -7 71 0 43 8 64 8 77 0 12 -8 21 -8 28 -1 6 6
22 6 47 -1 21 -5 35 -8 32 -4 -3 3 0 11 6 18 13 13 37 9 49 -9 4 -6 8 -1 8 12
0 12 7 25 16 29 8 3 13 12 10 19 -4 9 2 14 17 14 32 0 70 29 62 47 -4 13 -3
13 9 4 8 -6 12 -20 9 -29 -3 -12 2 -18 14 -19 94 -7 115 -12 134 -29 12 -10
24 -18 27 -16 4 2 8 -2 10 -8 3 -8 -3 -10 -19 -5 -13 4 -26 10 -29 14 -10 12
-52 32 -57 27 -3 -3 -1 -12 5 -19 7 -8 8 -17 4 -22 -4 -4 3 -4 16 -1 15 5 24
3 28 -7 7 -18 44 -11 62 11 7 10 12 11 12 4 0 -7 5 -12 10 -12 11 0 27 -11 62
-45 l20 -20 -11 23 c-10 18 -9 22 3 22 8 0 22 -10 30 -22 12 -17 18 -20 28
-10 30 30 78 9 109 -50 11 -21 11 -22 -4 -9 -33 26 -17 -8 20 -45 43 -43 49
-72 19 -84 -20 -7 -20 -8 7 -20 15 -7 27 -17 27 -22 0 -5 5 -6 11 -2 8 5 10
-3 7 -24 -3 -23 -1 -29 7 -22 7 5 15 6 19 2 9 -8 14 -9 55 -11 25 -1 30 -6 36
-37 4 -22 2 -41 -4 -47 -8 -8 -11 0 -11 27 0 31 -3 37 -16 32 -9 -3 -18 -6
-20 -6 -2 0 -4 -4 -4 -10 0 -5 6 -9 12 -7 17 3 22 -38 9 -74 -14 -40 -7 -37
28 15 21 30 28 50 24 66 -4 16 -3 21 6 16 6 -4 9 -12 6 -17 -4 -5 -2 -9 2 -9
5 0 17 14 27 31 10 17 20 28 23 25 3 -3 21 16 39 42 19 26 34 43 34 39 0 -13
-46 -81 -69 -101 -11 -11 -21 -28 -21 -38 0 -13 -4 -17 -12 -12 -10 6 -10 5
-1 -7 6 -8 13 -27 16 -44 4 -27 4 -26 7 10 2 22 4 45 4 52 1 6 5 15 9 19 4 4
7 -20 7 -54 0 -35 4 -62 10 -62 6 0 10 21 10 46 0 81 34 165 60 149 5 -3 10
-1 10 4 0 6 5 11 11 11 29 0 48 46 33 84 -8 21 -24 20 -24 -2 0 -9 -9 -23 -20
-30 -27 -17 -25 1 3 32 24 26 53 29 67 7 9 -15 65 -7 76 11 4 6 -1 8 -15 3
-32 -10 -60 3 -81 37 -17 29 -18 29 -25 8 -5 -17 -10 -19 -21 -9 -8 6 -12 22
-10 35 4 19 0 24 -15 24 -11 0 -19 7 -19 18 0 15 2 15 11 2 8 -11 9 -8 4 15
-5 22 -4 27 5 19 6 -6 13 -18 14 -25 2 -8 6 -22 10 -31 4 -9 5 -22 1 -28 -3
-5 -1 -10 4 -10 12 0 14 10 11 55 -1 17 -7 33 -12 36 -7 4 -6 9 1 13 6 4 13 1
15 -6 22 -70 26 -73 21 -23 -4 53 -13 132 -20 178 -3 15 -1 26 4 23 15 -10 18
77 3 106 -7 15 -11 32 -8 37 3 5 1 23 -5 41 -9 26 -9 34 2 41 11 6 11 11 1 21
-6 6 -12 20 -12 31 0 10 -4 15 -10 12 -5 -3 -10 -2 -10 4 0 5 8 12 18 14 16 4
16 5 0 6 -11 1 -15 6 -12 16 4 8 1 15 -5 15 -6 0 -11 5 -11 10 0 6 9 10 20 10
14 0 20 6 18 18 -4 23 -18 32 -52 32 -23 0 -27 3 -23 20 6 22 -8 28 -16 8 -4
-10 -6 -10 -6 -1 -1 6 4 15 9 18 17 11 11 31 -10 31 -11 0 -21 -4 -21 -8 -1
-4 -2 -12 -3 -17 -3 -24 -16 -21 -16 3 0 19 6 29 20 33 17 5 19 11 14 47 -8
49 -14 59 -14 24 0 -15 -7 -29 -16 -32 -14 -5 -15 -4 -4 9 27 33 -1 26 -33 -9
-19 -19 -36 -33 -39 -30 -3 3 -4 24 -1 47 3 32 2 38 -6 27 -6 -8 -11 -26 -11
-40 0 -20 -2 -22 -10 -10 -6 8 -7 28 -4 44 4 19 3 26 -5 22 -7 -5 -11 4 -11
26 0 21 -3 28 -8 20 -5 -7 -16 -10 -25 -6 -9 3 -17 2 -17 -4 0 -6 6 -13 13
-15 9 -4 9 -6 0 -6 -7 -1 -10 -7 -7 -15 3 -7 -2 -16 -11 -20 -15 -5 -17 0 -13
34 2 22 0 40 -5 40 -4 0 -7 6 -6 13 1 6 -1 19 -4 27 -3 8 -8 31 -10 50 -3 27
-4 30 -7 10z"/>
<path d="M1668 1995 c-20 -26 -24 -75 -7 -75 5 0 27 -11 47 -25 32 -22 34 -25
14 -25 -20 0 -21 -2 -10 -13 15 -16 88 -33 163 -40 44 -4 47 -4 23 6 -16 6
-28 18 -28 26 0 14 -1 14 -10 1 -6 -9 -13 -11 -17 -5 -5 6 -17 11 -28 11 -11
1 -29 5 -39 9 -15 6 -17 5 -11 -5 5 -8 4 -11 -3 -6 -6 4 -9 13 -6 21 5 13 9
13 27 0 25 -17 41 -20 32 -5 -4 7 3 9 22 5 l28 -6 -22 19 c-12 11 -41 22 -63
26 -48 8 -74 29 -77 64 -3 37 -16 43 -35 17z"/>
<path d="M2457 1944 c-4 -4 -35 -8 -70 -9 -37 -1 -79 -9 -105 -20 -39 -17 -42
-22 -37 -47 4 -17 2 -28 -4 -28 -6 0 -11 11 -11 25 0 26 -8 29 -58 19 -24 -5
-28 -9 -19 -19 7 -7 14 -9 17 -5 3 4 14 10 24 12 16 2 22 -6 31 -37 11 -36 13
-38 19 -17 4 12 12 22 17 22 5 0 9 6 8 13 -3 24 1 38 10 33 5 -3 7 -15 4 -26
-3 -11 0 -20 6 -20 10 0 15 19 12 46 -1 6 6 18 16 25 12 10 15 10 9 1 -4 -7
-9 -24 -12 -37 -3 -18 0 -25 12 -25 10 0 14 5 10 15 -4 12 0 15 17 14 42 -4
68 1 62 11 -3 6 -1 10 4 10 6 0 11 -4 11 -10 0 -5 5 -10 11 -10 5 0 7 4 4 10
-3 5 9 9 29 8 19 -1 33 -5 30 -9 -6 -10 26 0 44 14 8 6 12 5 12 -4 0 -12 2
-12 9 0 6 10 13 11 29 2 24 -13 42 -14 42 -3 0 25 -163 66 -183 46z"/>
<path d="M1531 1802 c-35 -35 -37 -53 -16 -147 13 -56 22 -80 42 -114 2 -2 11
3 20 11 13 11 24 13 38 7 18 -9 18 -9 -2 -5 -13 2 -23 0 -23 -6 0 -6 19 -8 45
-6 25 2 47 -1 49 -7 3 -5 5 -1 5 9 1 16 5 15 26 -10 14 -16 25 -36 25 -44 1
-12 3 -11 11 3 5 9 7 22 4 27 -3 6 1 7 10 4 12 -5 13 -9 3 -21 -9 -11 -9 -16
3 -23 10 -7 16 -3 21 11 6 16 13 19 30 14 13 -4 28 -12 33 -18 7 -7 6 -8 -2
-3 -7 4 -13 2 -13 -3 0 -43 102 56 120 117 17 54 0 114 -42 154 -42 39 -145
69 -260 75 l-97 6 -30 -31z"/>
<path d="M2135 1803 c-48 -5 -65 -17 -27 -19 15 -1 91 -4 169 -8 77 -3 161
-10 185 -15 23 -6 44 -6 46 -2 1 4 13 6 27 4 13 -3 22 -10 19 -17 -3 -7 6 -17
19 -23 23 -11 24 -10 13 12 -12 26 -45 45 -79 45 -12 0 -29 5 -37 11 -15 10
19 8 100 -6 l35 -7 -30 17 c-24 13 -54 16 -162 14 -72 -2 -130 -6 -127 -11 3
-4 1 -8 -5 -8 -5 0 -13 5 -16 10 -5 8 -11 7 -21 -1 -11 -9 -18 -9 -26 -1 -7 7
-19 11 -27 10 -9 -1 -34 -3 -56 -5z"/>
<path d="M2250 1755 c-8 -2 -31 -6 -51 -9 -74 -13 -96 -64 -60 -141 22 -46 78
-111 88 -101 3 3 -4 18 -18 34 l-24 27 26 -23 c14 -12 28 -20 30 -18 3 3 5 -3
5 -14 0 -10 -4 -16 -8 -14 -4 3 -8 1 -8 -5 0 -13 38 -34 49 -26 20 12 43 -7
36 -32 -5 -23 -5 -23 13 -6 17 17 17 18 -3 32 -11 8 -26 21 -33 30 -11 14 -14
14 -22 1 -7 -11 -10 -2 -11 30 -1 25 -1 48 0 53 0 4 -15 7 -35 7 -28 0 -35 3
-30 15 5 14 1 16 -21 14 -5 0 -7 -7 -5 -15 5 -26 -6 -15 -17 17 -9 28 -9 30 7
24 9 -4 22 -8 27 -9 39 -10 119 -48 127 -60 4 -6 2 -14 -5 -18 -8 -5 -6 -8 6
-8 14 0 17 5 12 20 -7 22 9 27 22 8 22 -35 40 -39 77 -18 19 12 40 19 46 15 6
-3 10 3 10 15 0 12 -4 18 -10 15 -5 -3 -17 -2 -26 3 -13 7 -8 10 22 15 37 6
62 -1 37 -10 -7 -3 -13 -16 -13 -29 0 -15 -7 -27 -17 -30 -53 -17 -73 -28 -73
-39 0 -20 52 -6 78 21 13 13 29 24 37 24 7 0 20 7 29 15 8 8 17 11 20 6 3 -5
-7 -14 -23 -21 -41 -17 -65 -45 -56 -67 5 -12 9 -14 12 -5 3 6 14 12 26 12 17
0 19 2 8 9 -8 5 -21 7 -29 3 -10 -3 -13 -1 -8 7 4 6 15 11 24 9 10 -1 23 1 30
5 7 5 14 2 18 -7 9 -22 27 -20 20 2 -4 13 1 23 19 32 14 7 25 23 26 34 0 16 3
13 10 -9 10 -34 5 -55 -13 -55 -9 0 -9 3 0 12 17 17 15 29 -3 22 -8 -4 -15
-18 -15 -32 0 -16 -10 -35 -27 -49 -21 -16 -24 -22 -12 -23 9 0 22 6 28 14 9
10 23 13 48 9 l35 -6 -6 34 c-14 68 -38 135 -57 159 -18 23 -20 24 -32 8 -11
-13 -20 -15 -43 -8 -24 7 -25 8 -6 9 12 1 22 7 22 14 0 9 3 8 9 -2 7 -10 10
-10 16 -1 4 7 1 16 -6 21 -55 34 -263 68 -329 54z"/>
<path d="M2880 1182 c0 -19 -168 -197 -214 -227 -14 -9 -24 -22 -22 -28 1 -7
1 -9 -1 -4 -8 12 -19 8 -57 -22 -36 -29 -42 -44 -19 -47 7 -1 9 5 5 14 -5 15
-4 15 11 3 16 -13 16 -14 0 -26 -10 -7 -22 -11 -27 -8 -5 4 -6 1 -2 -5 3 -6
-7 -16 -24 -24 -16 -7 -30 -19 -30 -25 0 -7 -4 -13 -10 -13 -5 0 -10 11 -10
25 0 18 -4 23 -15 19 -8 -4 -15 -10 -15 -16 0 -5 4 -7 9 -4 5 3 11 -3 14 -14
6 -24 -25 -36 -50 -20 -16 10 -15 11 5 6 19 -4 21 -2 11 10 -9 11 -15 11 -25
3 -15 -12 -4 -43 18 -52 10 -4 10 -6 1 -6 -8 -1 -13 -16 -13 -38 0 -55 -10
-83 -29 -83 -14 0 -14 2 -1 10 13 9 13 11 0 19 -8 6 -11 13 -7 18 5 4 12 2 16
-5 4 -8 7 6 7 32 -1 24 -5 48 -10 53 -5 4 -7 -6 -4 -24 5 -36 -16 -48 -26 -15
-3 9 -4 5 -2 -11 2 -15 0 -30 -4 -32 -10 -6 -20 47 -13 73 4 16 1 20 -14 18
-14 -2 -18 -12 -18 -39 0 -21 -3 -37 -7 -37 -5 0 -8 -9 -8 -19 0 -11 -4 -21
-8 -23 -5 -1 -12 -20 -15 -41 -5 -33 -4 -38 11 -32 9 3 41 13 72 23 65 19 78
37 74 103 -2 35 -1 39 6 21 5 -12 6 -30 3 -39 -4 -11 -3 -14 5 -9 7 4 12 25
12 47 0 39 17 69 39 69 13 0 135 98 140 112 2 6 -1 8 -8 4 -6 -4 -19 -3 -28 3
-14 8 -11 9 15 6 26 -3 38 2 55 22 12 14 27 31 32 37 6 6 23 29 39 51 16 22
48 58 70 80 44 43 91 115 76 115 -6 0 -10 -4 -10 -8z"/>
<path d="M3207 1074 c-12 -73 -97 -166 -246 -271 -3 -2 14 -19 36 -38 22 -19
55 -63 74 -98 30 -59 32 -66 17 -80 -9 -9 -19 -13 -22 -9 -4 4 -2 -6 3 -21 17
-45 13 -78 -13 -102 -14 -13 -27 -20 -30 -17 -3 3 -6 0 -6 -7 0 -7 -4 -9 -10
-6 -5 3 -10 0 -10 -9 0 -8 -6 -16 -12 -19 -8 -2 -9 -8 -4 -13 5 -5 11 -4 13 4
10 26 21 10 26 -35 6 -71 36 -195 52 -220 17 -26 11 -69 -15 -100 -16 -21 -28
-23 -141 -25 -68 -2 234 -3 671 -3 437 -1 711 1 609 2 l-185 3 -17 48 c-20 54
-21 66 -7 57 11 -7 1 27 -10 35 -4 3 -18 34 -32 69 -23 57 -70 136 -191 320
-23 35 -56 88 -73 118 -23 40 -33 51 -37 39 -8 -21 -37 -21 -37 0 0 9 5 12 12
8 8 -5 9 0 5 15 -5 19 -3 20 9 10 13 -11 14 -9 3 17 -7 16 -21 39 -32 50 -22
26 -132 68 -153 60 -8 -3 -12 -2 -9 3 9 16 -58 71 -80 66 -11 -3 -14 -2 -7 1
16 7 -10 42 -91 125 l-55 56 -5 -33z"/>
<path d="M1910 1054 c0 -5 -16 -20 -36 -33 -52 -36 -56 -50 -34 -110 11 -28
20 -68 20 -89 1 -31 3 -34 13 -22 7 9 33 28 60 43 26 15 47 30 47 33 0 9 -61
178 -65 183 -3 2 -5 0 -5 -5z"/>
<path d="M2052 725 c-34 -88 -70 -350 -59 -429 4 -28 3 -46 -3 -46 -6 0 -10
10 -11 23 0 12 -5 31 -10 42 -6 14 -7 5 -3 -30 3 -28 16 -65 30 -86 13 -19 24
-39 24 -45 0 -14 -52 53 -77 100 -12 23 -22 36 -23 29 0 -14 38 -82 58 -102 7
-8 11 -23 8 -35 -30 -121 -34 -146 -21 -146 12 0 24 23 44 90 6 19 24 74 41
123 24 70 28 92 19 114 -5 15 -7 38 -4 51 3 13 0 31 -7 40 -10 12 -10 16 0 19
17 6 15 58 -3 73 -8 7 -15 17 -15 22 0 5 7 2 16 -6 8 -9 21 -16 27 -16 8 0 7
4 -1 12 -7 7 -12 21 -12 33 0 16 2 17 10 5 11 -17 13 -10 10 38 -1 17 3 32 8
32 5 0 13 -15 19 -32 9 -32 10 -31 10 17 -1 28 3 66 7 87 7 31 6 37 -10 41
-16 4 -15 5 4 6 15 1 22 -5 22 -16 0 -12 3 -14 8 -6 4 7 13 9 21 4 7 -5 11
-13 7 -19 -3 -6 -2 -13 4 -17 5 -3 10 3 10 14 0 12 5 21 12 21 26 0 -9 18 -57
29 -27 7 -57 14 -66 17 -12 3 -22 -10 -37 -51z"/>
</g>
</svg>
